<?xml version="1.0" encoding="UTF-8"?>
<svg xmlns="http://www.w3.org/2000/svg" version="1.1" viewBox="0 0 712 104">
  <defs>
    <style>
      .cls-1 {
        stroke: #7f6b5f;
        stroke-linejoin: round;
        stroke-width: 3px;
      }

      .cls-1, .cls-2 {
        fill: #7f6b5f;
      }
    </style>
  </defs>
  <!-- Generator: Adobe Illustrator 28.7.1, SVG Export Plug-In . SVG Version: 1.2.0 Build 142)  -->
  <g>
    <g id="Calque_1">
      <path class="cls-2" d="M332.3,0c-25.3,0-45,14.7-50.9,37.4,0,0,0,0,0,0-.1.6-.2,1.1-.3,1.7-.2.8-.4,1.7-.5,2.6-5.2,23.1-15.9,34.8-15.9,34.8-6.1,8.5-14.3,12.3-25.1,12.3-20,0-33.3-16.5-33.3-36.8s11.2-36.8,33.3-36.8,12.8,1.8,18.1,5.7l5.1-15.9C255.6,1.6,247.7,0,239.5,0,217,0,199.8,12.1,192.4,30.6,184.7,11.8,166.5,0,143.8,0s-45,14.7-50.9,37.4c0,0,0,0,0,0-.1.6-.2,1.2-.4,1.7-.2.8-.4,1.6-.5,2.5-5.2,23.1-15.9,34.8-15.9,34.8-6.1,8.5-14.3,12.3-25.1,12.3-20,0-33.3-16.5-33.3-36.8S28.9,15.2,51,15.2s12.5,1.7,17.7,5.4l5-15.9C66.8,1.6,59.1,0,51,0,20.7,0,0,22,0,52s20.5,52,51,52,27.8-4.9,37.3-15.9c0,0,7.4-10,14.3-2.3,0,0,.2.2.2.3.2.2.4.4.6.7.2.3.5.5.7.7,9.5,10.4,23.4,16.5,39.6,16.5s40.8-11.8,48.6-30.5c7.3,18.6,24.4,30.5,47.1,30.5s27.8-4.9,37.3-15.9c0,0,7.4-10,14.3-2.3,0,0,.1.2.2.3.2.2.4.4.6.7.2.3.5.5.7.7,9.5,10.4,23.4,16.5,39.6,16.5,30.4,0,52.7-21.1,52.7-52,0-30.9-22.4-52-52.7-52ZM143.8,15.2c21.3,0,35,16.1,35,36.8s-13.7,36.8-35,36.8-35-16.1-35-36.8,13.7-36.8,35-36.8ZM332.3,15.2c21.3,0,35,16.1,35,36.8s-13.7,36.8-35,36.8-35-16.1-35-36.8,13.7-36.8,35-36.8ZM141.5,37.6c-2.8,0-5.1,2.3-5.1,5.2s2.3,5.2,5.1,5.2,5.1-2.3,5.1-5.2-2.3-5.2-5.1-5.2ZM165,37.6c-2.8,0-5.1,2.3-5.1,5.2s2.3,5.2,5.1,5.2,5.1-2.3,5.1-5.2-2.3-5.2-5.1-5.2ZM312.3,37.6c-2.8,0-5.1,2.3-5.1,5.2s2.3,5.2,5.1,5.2,5.1-2.3,5.1-5.2-2.3-5.2-5.1-5.2ZM335.8,37.6c-2.8,0-5.1,2.3-5.1,5.2s2.3,5.2,5.1,5.2,5.1-2.3,5.1-5.2-2.3-5.2-5.1-5.2ZM137.3,60.8s1.6,12.2,11.4,16.7c9.8,4.5,15.4-13.6,15.4-13.6l-26.8-3.2ZM311.2,60.8s1.6,12.2,11.4,16.7c9.8,4.5,15.4-13.6,15.4-13.6l-26.8-3.2Z"/>
      <g>
        <path class="cls-1" d="M401.9,21.8c.3-1.9.5-3.7.5-5.1s0-2.5-.2-3.1l-.2-.7c1-.6,2.8-.9,5.4-.9,3.8,0,6.2.8,7.2,2.3,1,1.5,1.2,4.2.5,8l-10.2,57.8c-1,6.1.4,9.2,4.5,9.2s4.3-.8,6.4-2.4c2.1-1.6,3.8-3.8,5.1-6.6,1.6,0,2.3.9,2,2.7-.6,3.3-2.8,6.6-6.6,10.1-3.8,3.5-8,5.3-12.6,5.3s-6.6-1.1-8.8-3.4-3.3-5.5-3.3-9.6.3-6.3.9-9.9l9.5-53.6Z"/>
        <path class="cls-1" d="M463.5,80.1c-1.1,6.1.4,9.2,4.5,9.2s3.7-.8,5.8-2.5,3.8-3.8,5.1-6.6c1.6,0,2.3.9,2,2.7-.6,3.3-2.7,6.6-6.3,10.1-3.6,3.5-7.7,5.3-12.3,5.3s-6.3-1-8.5-3.1-3.4-5-3.7-8.6c-4.4,7.8-9.7,11.8-15.9,11.8s-8.2-1.5-11-4.6c-2.8-3.1-4.3-7.5-4.3-13.3,0-10.8,2.6-19.2,7.8-25.2,5.2-6,11.2-8.9,17.9-8.9s8.5,1.7,11.2,5.1c.8-1.9,2-3.2,3.4-4,1.4-.8,3.4-1.1,6-1.1s2,0,2.9.3c.9.2,1.5.4,1.8.6l.5.2c-.9,1.2-1.7,3.7-2.4,7.5l-4.5,25.3ZM438.3,89.2c2.3,0,4.5-1.5,6.7-4.5,2.1-3,3.9-6.3,5.1-10.1,1.3-3.7,2.3-7.6,3.1-11.4l.9-4.9c-1.5-3.3-3.8-5-6.9-5s-7.3,2.5-10.4,7.6c-3.1,5.1-4.7,11.6-4.7,19.6s2,8.6,6.1,8.6Z"/>
        <path class="cls-1" d="M512.6,62c.8-4.4,0-6.6-2.5-6.6s-7,3.3-11.1,10c-4.1,6.7-6.9,14.3-8.5,22.9-.3,1.9-.5,3.7-.5,5.1s0,2.5.2,3.1l.2.7c-1,.6-2.8.9-5.4.9-3.8,0-6.2-.8-7.2-2.3-1-1.5-1.2-4.2-.5-8l5.5-31.8c.3-1.9.5-3.7.5-5.1s0-2.5-.2-3.1l-.2-.7c1-.6,2.8-.9,5.4-.9,3.8,0,6.2.8,7.2,2.3,1,1.5,1.2,4.2.5,8l-.8,4.8c2.4-4,5.4-7.5,9-10.5,3.7-3.1,7.5-4.6,11.3-4.6s5.9,1,7.8,2.9c1.9,1.9,2.9,4.5,2.9,7.8s-.3,4.7-.9,8.4l-2.5,14.7c-1.1,6.1.3,9.2,4.3,9.2s7.9-3,10.9-9c1.6,0,2.3.9,2,2.7-.5,3.1-2.5,6.5-6.2,10-3.6,3.6-7.7,5.4-12.1,5.4s-7-1.2-9.2-3.5c-2.3-2.4-3.4-5.5-3.4-9.5s.5-6.1,1.6-11.9l2-11.4Z"/>
        <path class="cls-1" d="M579.4,98.3c-3.5,0-6.3-1-8.5-3.1-2.2-2.1-3.4-5-3.6-8.7-4.5,7.9-9.8,11.9-16,11.9s-8.2-1.5-11-4.6c-2.8-3.1-4.3-7.5-4.3-13.3,0-10.8,2.6-19.2,7.8-25.2,5.2-6,11.2-8.9,17.9-8.9s8.3,1.5,10.8,4.6l5-29c.3-1.9.5-3.7.5-5.1s0-2.5-.2-3.1l-.2-.7c1-.6,2.8-.9,5.4-.9,3.8,0,6.2.8,7.2,2.3,1,1.5,1.2,4.2.5,8l-10,57.8c-1,6.1.5,9.2,4.5,9.2s3.7-.8,5.8-2.5,3.8-3.8,5.1-6.6c1.6,0,2.3.9,2,2.7-.6,3.3-2.7,6.6-6.3,10.1-3.6,3.5-7.7,5.3-12.3,5.3ZM555.4,89.2c2.3,0,4.5-1.5,6.7-4.5,2.1-3,3.9-6.3,5.1-10.1,1.3-3.7,2.3-7.6,3.1-11.4l.9-4.9c-1.5-3.3-3.8-5-6.9-5s-7.3,2.5-10.4,7.6c-3.1,5.1-4.7,11.6-4.7,19.6s2,8.6,6.1,8.6Z"/>
        <path class="cls-1" d="M599.2,93.1c0-2.1.7-3.8,2.1-5.3,1.4-1.5,3.1-2.2,5.1-2.2s3.5.6,4.7,1.9c1.2,1.2,1.8,2.8,1.8,4.7s-.7,3.6-2.1,5c-1.4,1.4-3.2,2.1-5.4,2.1s-3.4-.6-4.5-1.8c-1.1-1.2-1.7-2.7-1.7-4.5Z"/>
        <path class="cls-1" d="M625.5,56.1c.3-1.9.5-3.7.5-5.1s0-2.5-.2-3.1l-.2-.7c1-.6,2.8-.9,5.4-.9,3.8,0,6.2.8,7.2,2.3,1,1.5,1.2,4.2.5,8l-4.1,23.5c-1,6.1.5,9.2,4.5,9.2s3.7-.8,5.8-2.5c2.1-1.7,3.8-3.8,5.1-6.6,1.6,0,2.3.9,2,2.7-.6,3.3-2.7,6.6-6.3,10.1-3.6,3.5-7.7,5.3-12.3,5.3s-6.6-1.1-8.8-3.4c-2.2-2.3-3.3-5.5-3.3-9.6s.3-6.3.9-9.9l3.3-19.2ZM629.1,30.7c0-2.1.7-3.8,2.1-5.3,1.4-1.5,3.1-2.2,5.1-2.2s3.5.6,4.7,1.9c1.2,1.2,1.8,2.8,1.8,4.7s-.7,3.6-2.1,5c-1.4,1.4-3.2,2.1-5.4,2.1s-3.4-.6-4.5-1.8c-1.1-1.2-1.7-2.7-1.7-4.5Z"/>
        <path class="cls-1" d="M676.8,46.3c6,0,10.6,1.8,14,5.4,3.4,3.6,5.1,8.4,5.1,14.5s-.2,4.3-.5,6.6c2.3-.3,4.5-1.2,6.6-2.5,2.1-1.4,3.7-2.6,4.6-3.8l1.4-1.8c1.5,0,2.1.9,1.9,2.6-.3,2-2,4.1-5.1,6.3-3.1,2.2-6.5,3.5-10.4,4-1.8,6.4-5.1,11.4-9.8,15.2-4.8,3.7-10.6,5.6-17.4,5.6s-10.3-1.7-13.8-5.2c-3.5-3.5-5.3-8.4-5.3-14.7,0-9.6,2.6-17.3,7.8-23.2,5.2-5.9,12.2-8.9,21-8.9ZM677.2,66.4c0-4,1.8-6.3,5.3-7.1-.6-5.3-2.8-8-6.8-8s-5.5,1.6-7.9,4.9c-2.4,3.3-4.3,8.6-5.7,15.9-.6,3.3-.9,6.8-.9,10.7s.6,5.8,1.8,7.5c1.2,1.8,2.9,2.7,5.1,2.7,6,0,10.4-6.1,13-18.4-2.6-2-4-4.7-4-8.2Z"/>
      </g>
    </g>
  </g>
</svg>