<?xml version="1.0" encoding="UTF-8"?>
<svg version="1.1" xmlns="http://www.w3.org/2000/svg" width="304" height="382">
<path d="M0 0 C100.32 0 200.64 0 304 0 C304 126.06 304 252.12 304 382 C203.68 382 103.36 382 0 382 C0 255.94 0 129.88 0 0 Z " fill="#755B4D" transform="translate(0,0)"/>
<path d="M0 0 C0.86753906 0.45117188 1.73507813 0.90234375 2.62890625 1.3671875 C14.84273433 7.79551807 25.12610679 15.45715568 35 25 C35.65742188 25.61746094 36.31484375 26.23492187 36.9921875 26.87109375 C57.40968338 46.48882597 57.40968338 46.48882597 58 58 C58.66 58 59.32 58 60 58 C64.95289606 68.63955451 70.46729841 80.58410626 71.5625 92.375 C71.59793141 95.8036937 71.59793141 95.8036937 73 97 C75.47572542 114.44941441 74.87739134 131.70135276 70.8125 148.8125 C70.52117187 150.04460205 70.22984375 151.2767041 69.9296875 152.54614258 C67.14995426 163.53608042 63.15709183 173.71827013 57.3125 183.4375 C56.88026123 184.15921387 56.44802246 184.88092773 56.00268555 185.62451172 C42.48814237 207.78199121 24.5395579 223.52461679 2 236 C0.79649657 236.69987049 -0.40662772 237.40039334 -1.609375 238.1015625 C-8.03836644 241.70120517 -14.86483435 244.18597483 -22 246 C-22.96808594 246.2475 -23.93617188 246.495 -24.93359375 246.75 C-51.28500144 253.20593969 -84.58443214 253.19312616 -109.01953125 240.01171875 C-112.21467995 238.37948302 -115.55682603 237.13039732 -118.8984375 235.83203125 C-121 235 -121 235 -123 234 C-123 233.34 -123 232.68 -123 232 C-124.06734375 231.87044922 -124.06734375 231.87044922 -125.15625 231.73828125 C-143.18708817 227.05719826 -161.77474428 201.73599449 -171 187 C-173.15485222 183.06653961 -175.08448657 179.05376099 -177 175 C-177.9157096 173.27032631 -178.83232991 171.54113436 -179.75 169.8125 C-181.68767917 165.96190432 -182.81851297 162.34870972 -183.54296875 158.10546875 C-183.94630627 155.93981587 -183.94630627 155.93981587 -184.92797852 153.78320312 C-189.1697591 142.7706095 -189.43370447 131.23278489 -189.28125 119.59741211 C-189.24944718 117.14486828 -189.24019924 114.69296619 -189.234375 112.24023438 C-189.22522684 110.67447124 -189.21485817 109.10871465 -189.203125 107.54296875 C-189.19675018 106.44785225 -189.19675018 106.44785225 -189.19024658 105.33061218 C-189.11741198 100.23482396 -189.11741198 100.23482396 -188 98 C-187.72915546 96.10703216 -187.48344925 94.21044243 -187.25 92.3125 C-183.45006679 67.09980446 -169.85729757 45.52533601 -153 27 C-152.39671875 26.32453125 -151.7934375 25.6490625 -151.171875 24.953125 C-139.64372975 12.72630428 -123.75648442 1.86048686 -108 -4 C-106.95199219 -4.39703125 -105.90398437 -4.7940625 -104.82421875 -5.203125 C-71.38501122 -17.12774036 -31.64728544 -17.5876761 0 0 Z " fill="#E6E7E7" transform="translate(212,22)"/>
<path d="M0 0 C9.95068229 5.85334252 17.73088548 13.0635833 22.1875 23.875 C22.4865625 24.55046875 22.785625 25.2259375 23.09375 25.921875 C26.22480168 33.86546908 26.08350387 42.61820895 24.1875 50.875 C23.5275 50.875 22.8675 50.875 22.1875 50.875 C22.14625 51.535 22.105 52.195 22.0625 52.875 C19.68569585 61.02404279 13.36548981 65.92359845 6.1875 69.875 C5.43726563 70.29007812 4.68703125 70.70515625 3.9140625 71.1328125 C-4.02847296 74.90617652 -13.38159386 75.6163155 -21.78515625 72.921875 C-24.28216547 71.73174693 -26.52411396 70.42505771 -28.8125 68.875 C-29.864375 68.17375 -30.91625 67.4725 -32 66.75 C-38.33191415 61.04767959 -42.20447551 52.83633793 -44.8125 44.875 C-45.16054687 44.09382813 -45.50859375 43.31265625 -45.8671875 42.5078125 C-48.30520661 35.71762705 -47.43494342 27.60686878 -44.84375 20.9609375 C-39.65282225 10.46110636 -30.60477718 3.90585051 -19.8125 -0.125 C-13.54285691 -2.21488103 -6.28243805 -1.85383418 0 0 Z " fill="#E4E5E5" transform="translate(268.8125,278.125)"/>
<path d="M0 0 C7.23161698 3.95361759 12.61556701 10.0574873 15 18 C15.46484841 21.38401113 15.52435851 24.71234191 15.5 28.125 C15.49427979 29.05280273 15.48855957 29.98060547 15.48266602 30.93652344 C15.17777129 42.73399889 11.34488414 52.4482179 3 61 C-5.04958707 68.23838837 -12.91347761 69.73341307 -23.5234375 69.44140625 C-32.55684286 68.82222784 -41.56873396 64.84672705 -47.60546875 58 C-54.68921432 47.84067862 -56.61381644 37.30168218 -54.50390625 25.140625 C-53.80924221 22.6759413 -52.9821877 20.36437926 -52 18 C-51.6596875 17.15824219 -51.319375 16.31648438 -50.96875 15.44921875 C-46.81063986 6.19180462 -40.48139854 -0.27891898 -31 -4 C-20.49543317 -7.50152228 -9.68845193 -4.486764 0 0 Z " fill="#E4E5E5" transform="translate(125,295)"/>
<path d="M0 0 C3.36617085 0.23719645 6.73207404 0.47721419 10.09765625 0.72265625 C12.43793539 0.8889824 14.7789602 1.04582119 17.12109375 1.18359375 C23.46418662 1.58777002 29.66747802 2.37609015 35.9375 3.375 C44.59817444 4.75225847 53.27080908 5.67226487 62 6.5 C73.74170276 7.61477012 85.3654331 9.07003067 97 11 C92.5907608 29.86645618 80.91137456 49.57199045 64.6875 60.375 C58.42815577 63.66115572 51.36158766 63.64970266 44.6875 61.75 C43.11488155 61.19452252 41.55062943 60.61419247 40 60 C39.01 59.608125 38.02 59.21625 37 58.8125 C24.90684348 51.50621794 15.66460763 41.38591696 9 29 C8.63261719 28.34515625 8.26523438 27.6903125 7.88671875 27.015625 C3.35037278 18.53843793 0.63867203 9.5800804 0 0 Z " fill="#755B4E" transform="translate(86,174)"/>
<path d="M0 0 C0.82113281 0.40734375 1.64226563 0.8146875 2.48828125 1.234375 C5.81829006 3.05612049 7.62767857 4.19950893 9.25 7.6875 C8.77748433 13.94833269 5.81731496 19.46735433 3 25 C2.29875 24.2575 1.5975 23.515 0.875 22.75 C-5.18865501 16.94998216 -10.14871908 14.59781428 -18.43359375 14.73046875 C-22.37950191 15.1448792 -25.07756026 16.31551973 -28 19 C-33.62768035 26.26482373 -34.86752558 32.89098144 -34 42 C-31.80945611 46.62448155 -29.51808705 48.74095648 -25 51 C-22.35533749 51.512489 -19.85205247 51.9095706 -17.1875 52.1875 C-16.14819336 52.3102832 -16.14819336 52.3102832 -15.08789062 52.43554688 C-13.39313016 52.63424293 -11.69669806 52.81859203 -10 53 C-11.05486051 59.12096691 -12.65217026 63.75506674 -16 69 C-26.01446694 69.90310824 -34.5856444 67.8084651 -42.87109375 61.98046875 C-49.19721218 56.61313796 -54.42560899 50.33959592 -56 42 C-56.97588259 29.20092447 -53.90226478 18.36173388 -45.8515625 8.3203125 C-33.12321099 -6.26866182 -17.2802509 -9.07649542 0 0 Z " fill="#E3E4E5" transform="translate(62,269)"/>
<path d="M0 0 C1.19882813 0.00483398 1.19882813 0.00483398 2.421875 0.00976562 C3.246875 0.01814453 4.071875 0.02652344 4.921875 0.03515625 C5.76234375 0.03966797 6.6028125 0.04417969 7.46875 0.04882812 C9.53648901 0.06057664 11.60419124 0.07851103 13.671875 0.09765625 C15.58897598 4.86728015 17.03615955 8.92620911 17.359375 14.09765625 C17.45798828 15.52078125 17.45798828 15.52078125 17.55859375 16.97265625 C17.59597656 17.67390625 17.63335937 18.37515625 17.671875 19.09765625 C16.351875 19.09765625 15.031875 19.09765625 13.671875 19.09765625 C13.671875 18.43765625 13.671875 17.77765625 13.671875 17.09765625 C1.72587377 17.19288883 1.72587377 17.19288883 -8.140625 23.03515625 C-8.5325 23.71578125 -8.924375 24.39640625 -9.328125 25.09765625 C-9.68519531 25.63777344 -10.04226562 26.17789062 -10.41015625 26.734375 C-11.7382906 30.15361449 -11.44021298 33.38340768 -11.203125 36.97265625 C-11.17992187 37.66746094 -11.15671875 38.36226563 -11.1328125 39.078125 C-10.76234322 45.22559958 -8.27550844 48.78513842 -4.328125 53.47265625 C0.89738798 56.30314245 7.23118443 56.09792707 12.90234375 54.44921875 C14.53033997 53.74803488 16.10691539 52.93008157 17.671875 52.09765625 C18.661875 51.76765625 19.651875 51.43765625 20.671875 51.09765625 C20.671875 50.43765625 20.671875 49.77765625 20.671875 49.09765625 C21.331875 49.09765625 21.991875 49.09765625 22.671875 49.09765625 C23.331875 55.03765625 23.991875 60.97765625 24.671875 67.09765625 C13.50327162 73.47971532 2.78660506 76.51139865 -10.078125 73.44140625 C-18.11493923 70.20435607 -24.90808147 64.08284717 -28.328125 56.09765625 C-28.699375 55.26878906 -29.070625 54.43992187 -29.453125 53.5859375 C-33.57068188 43.10618336 -34.30667487 31.25801422 -30.390625 20.59765625 C-25.71135637 11.01567076 -18.17478902 4.90707376 -8.328125 1.09765625 C-5.47867172 0.26211906 -2.96563833 -0.02118313 0 0 Z " fill="#E3E4E5" transform="translate(188.328125,293.90234375)"/>
<path d="M0 0 C6.26130757 -0.40811267 10.16204221 1.24958204 14.96484375 5.2265625 C19.8231882 10.33405282 20.32675528 14.84525859 20.24609375 21.69140625 C19.68626099 26.73767651 17.24190721 29.87652399 13.77734375 33.5390625 C8.43369259 36.74525319 2.13449041 38.00852743 -4.05078125 36.95703125 C-9.50073613 34.95084707 -13.14792815 30.72375992 -16.03515625 25.8515625 C-17.46602279 20.66467131 -18.26615421 16.09382523 -16.0859375 11.015625 C-13.3059539 6.29754557 -10.14649439 2.26367521 -4.78515625 0.4765625 C-3.18879635 0.33143887 -1.59310151 0.17735103 0 0 Z " fill="#755D50" transform="translate(88.03515625,88.7734375)"/>
<path d="M0 0 C6.26130757 -0.40811267 10.16204221 1.24958204 14.96484375 5.2265625 C19.8231882 10.33405282 20.32675528 14.84525859 20.24609375 21.69140625 C19.68626099 26.73767651 17.24190721 29.87652399 13.77734375 33.5390625 C8.43369259 36.74525319 2.13449041 38.00852743 -4.05078125 36.95703125 C-9.50073613 34.95084707 -13.14792815 30.72375992 -16.03515625 25.8515625 C-17.46602279 20.66467131 -18.26615421 16.09382523 -16.0859375 11.015625 C-13.3059539 6.29754557 -10.14649439 2.26367521 -4.78515625 0.4765625 C-3.18879635 0.33143887 -1.59310151 0.17735103 0 0 Z " fill="#755D50" transform="translate(174.03515625,88.7734375)"/>
<path d="M0 0 C3.56948265 3.48449496 3.7984574 5.07704513 3.875 9.9375 C3.79211363 17.59988412 3.09051303 26.00686143 -1.875 32.1875 C-6.13124268 36.23093055 -8.51257471 36.95370564 -14.16015625 36.81640625 C-19.05771223 36.25495803 -22.23666251 33.14917142 -25.375 29.5625 C-28.35926308 20.60971077 -25.52702398 12.52151178 -21.9375 4.25 C-19.66719761 0.34507989 -17.99451437 -1.96964029 -13.5625 -3.25 C-8.25755158 -3.56205579 -4.21119658 -3.41530058 0 0 Z " fill="#755D51" transform="translate(116.375,310.4375)"/>
<path d="M0 0 C6.68404097 3.82824446 10.35420846 9.93698568 13 17 C14.28618538 22.35774038 14.99694573 27.56302156 12.875 32.75 C10.01877954 36.17746455 7.3251372 38.45746799 2.890625 39.4921875 C-1.88036505 39.90347975 -4.61743485 38.99263767 -8.3125 35.9375 C-14.46795564 29.86770677 -17.92363668 22.73414808 -18.5 14.0625 C-18.41258065 9.23258081 -16.98327537 6.82081453 -13.703125 3.375 C-9.57258834 0.04025481 -5.25139796 -1.21039481 0 0 Z " fill="#755D50" transform="translate(260,295)"/>
</svg>
